<?xml version="1.0" standalone="no"?><!DOCTYPE svg PUBLIC "-//W3C//DTD SVG 1.1//EN" "http://www.w3.org/Graphics/SVG/1.1/DTD/svg11.dtd"><svg t="1775546092345" class="icon" viewBox="0 0 1024 1024" version="1.1" xmlns="http://www.w3.org/2000/svg" p-id="2266" xmlns:xlink="http://www.w3.org/1999/xlink" width="200" height="200"><path d="M851.2 162.4H172.8L0 328.8l512 596.8 512-596.8-172.8-166.4z m-105.6 58.4c1.6 19.2-8 31.2-13.6 36.8-12-16.8-31.2-32.8-37.6-36.8h51.2zM79.2 339.2c-1.6 0 121.6-118.4 121.6-118.4h59.2C200 268.8 156.8 336 138.4 409.6l-59.2-70.4z m436 507.2L392.8 704.8c113.6 26.4 179.2 20 238.4 5.6l-116 136z m200.8-244.8c-32 39.2-115.2 34.4-212.8 32.8-35.2-60.8-148.8-71.2-196.8-26.4l-88-104c232 42.4 439.2 21.6 496.8 60.8 12.8 10.4 10.4 24 0.8 36.8zM538.4 373.6c-204 10.4-237.6-40.8-230.4-72 8-54.4 88.8-78.4 186.4-80 105.6-0.8 196.8 37.6 200.8 127.2h172V256.8l83.2 82.4-115.2 137.6c-35.2-71.2-134.4-107.2-296.8-103.2z" fill="#F70000" p-id="2267"></path></svg>